<?xml version="1.0" standalone="no"?>
<!DOCTYPE svg PUBLIC "-//W3C//DTD SVG 20010904//EN"
 "http://www.w3.org/TR/2001/REC-SVG-20010904/DTD/svg10.dtd">
<svg version="1.0" xmlns="http://www.w3.org/2000/svg" width="1280.000000pt" height="1155.000000pt" viewBox="0 0 1280.000000 900.000000" stroke="#EFD0D7" stroke-width="500px" stroke-linecap="round"
 preserveAspectRatio="xMidYMid meet">
<metadata>
Created by potrace 1.15, written by Peter Selinger 2001-2017
</metadata>
<g transform="translate(0.000000,1155.000000) scale(0.100000,-0.100000)"
fill="#ffffff" >
<path d="M2795 11543 c-200 -23 -339 -55 -475 -107 -418 -162 -754 -468 -939
-856 -119 -249 -168 -492 -158 -770 13 -357 139 -690 365 -971 73 -91 215
-227 304 -293 l64 -47 -62 -122 c-618 -1214 -588 -2618 81 -3810 451 -804
1186 -1481 2070 -1908 616 -297 1253 -467 1950 -519 193 -15 617 -15 810 0
1150 87 2197 511 3035 1230 244 210 535 526 725 790 908 1259 1035 2857 336
4227 l-57 112 64 47 c89 66 231 202 304 293 314 389 433 887 332 1379 -38 183
-128 396 -238 562 -556 835 -1732 1022 -2531 403 -171 -133 -313 -299 -460
-537 -9 -14 -30 -9 -195 45 -500 164 -950 245 -1489 269 -665 29 -1314 -60
-1951 -269 -165 -54 -186 -59 -195 -45 -95 155 -182 271 -268 361 -295 306
-655 484 -1082 533 -85 9 -273 11 -340 3z"/>
</g>
</svg>
