<?xml version="1.0" encoding="iso-8859-1"?>
<!-- Generator: Adobe Illustrator 19.0.0, SVG Export Plug-In . SVG Version: 6.00 Build 0)  -->
<svg version="1.1" id="Capa_1" xmlns="http://www.w3.org/2000/svg" xmlns:xlink="http://www.w3.org/1999/xlink" x="0px" y="0px"
	 viewBox="0 0 511.999 511.999" style="enable-background:new 0 0 511.999 511.999;" xml:space="preserve">
<path style="fill:#947165;" d="M53.639,199.118c-3.022,0.67-6.007,1.732-8.89,3.21c-18.167,9.316-25.343,31.595-16.027,49.762
	c18.964,36.984,67.162,79.644,114.993,87.014c20.178,3.108,39.057-10.727,42.166-30.906c3.109-20.178-10.728-39.057-30.906-42.166
	c-21.061-3.246-50.851-28.929-60.465-47.677C86.674,203.071,69.659,195.566,53.639,199.118z"/>
<path style="opacity:0.12;enable-background:new    ;" d="M53.639,199.118c-3.022,0.67-6.007,1.732-8.89,3.21
	c-18.167,9.316-25.343,31.595-16.027,49.762c18.964,36.984,67.162,79.644,114.993,87.014c20.178,3.108,39.057-10.727,42.166-30.906
	c3.109-20.178-10.728-39.057-30.906-42.166c-21.061-3.246-50.851-28.929-60.465-47.677
	C86.674,203.071,69.659,195.566,53.639,199.118z"/>
<path style="opacity:0.12;enable-background:new    ;" d="M154.975,266.032c-5.505-0.848-11.607-3.239-17.788-6.629
	c-15.892,18.79-27.388,41.385-32.899,66.2c12.744,6.647,26.099,11.446,39.426,13.499c20.178,3.108,39.057-10.727,42.166-30.906
	C188.991,288.02,175.154,269.141,154.975,266.032z"/>
<path style="fill:#947165;" d="M458.388,199.118c3.022,0.67,6.007,1.732,8.89,3.21c18.167,9.316,25.343,31.595,16.027,49.762
	c-18.964,36.984-67.162,79.644-114.993,87.014c-20.178,3.108-39.057-10.727-42.166-30.906
	c-3.109-20.178,10.728-39.057,30.906-42.166c21.061-3.246,50.851-28.929,60.465-47.677
	C425.352,203.071,442.368,195.566,458.388,199.118z"/>
<path style="opacity:0.12;enable-background:new    ;" d="M458.388,199.118c3.022,0.67,6.007,1.732,8.89,3.21
	c18.167,9.316,25.343,31.595,16.027,49.762c-18.964,36.984-67.162,79.644-114.993,87.014c-20.178,3.108-39.057-10.727-42.166-30.906
	c-3.109-20.178,10.728-39.057,30.906-42.166c21.061-3.246,50.851-28.929,60.465-47.677
	C425.352,203.071,442.368,195.566,458.388,199.118z"/>
<path style="opacity:0.12;enable-background:new    ;" d="M374.839,259.403c-6.181,3.39-12.284,5.781-17.788,6.629
	c-20.178,3.109-34.016,21.987-30.906,42.166c3.109,20.179,21.989,34.014,42.166,30.906c13.327-2.054,26.683-6.853,39.426-13.499
	C402.227,300.789,390.732,278.194,374.839,259.403z"/>
<path style="fill:#947165;" d="M396.849,359.106c0-77.51-63.054-140.344-140.836-140.344s-140.836,62.834-140.836,140.344
	s40.808,124.676,140.836,124.676S396.849,436.616,396.849,359.106z"/>
<path style="opacity:0.12;enable-background:new    ;" d="M256.013,218.763c-3.355,0-6.68,0.125-9.976,0.355
	c73.125,5.1,130.861,65.822,130.861,139.989c0,74.879-38.091,121.434-130.861,124.509c3.26,0.108,6.581,0.167,9.976,0.167
	c100.027,0,140.836-47.166,140.836-124.676C396.849,281.596,333.795,218.763,256.013,218.763z"/>
<path style="fill:#FFABCA;" d="M256.013,314.765c-16.329-16.329-42.826-16.294-59.113,0.105
	c-16.25,16.362-15.882,42.917,0.424,59.224l49.448,49.448c5.104,5.103,13.377,5.103,18.48,0l49.448-49.448
	c16.306-16.306,16.674-42.861,0.424-59.225C298.84,298.47,272.343,298.436,256.013,314.765z"/>
<circle style="fill:#947165;" cx="146.094" cy="65.387" r="57.893"/>
<circle style="opacity:0.12;enable-background:new    ;" cx="146.094" cy="65.387" r="27.937"/>
<circle style="fill:#947165;" cx="365.935" cy="65.387" r="57.893"/>
<circle style="opacity:0.12;enable-background:new    ;" cx="365.935" cy="65.387" r="27.937"/>
<ellipse style="fill:#947165;" cx="256.009" cy="158.134" rx="135.504" ry="123.075"/>
<circle style="fill:#F4D06D;" cx="256.009" cy="171.493" r="50.879"/>
<path style="fill:#394049;" d="M268.952,120.392h-25.876c-9.018,0-13.65,10.796-7.439,17.331l7.594,7.991
	c6.952,7.316,18.614,7.316,25.566,0l7.594-7.991C282.602,131.188,277.968,120.392,268.952,120.392z"/>
<g>
	<path style="fill:#FFFFFF;" d="M174.271,174.855h-14.486c-4.142,0-7.5-3.358-7.5-7.5s3.358-7.5,7.5-7.5h14.486
		c4.142,0,7.5,3.358,7.5,7.5S178.412,174.855,174.271,174.855z"/>
	<path style="fill:#FFFFFF;" d="M352.057,174.855h-14.485c-4.143,0-7.5-3.358-7.5-7.5s3.357-7.5,7.5-7.5h14.485
		c4.142,0,7.5,3.358,7.5,7.5S356.2,174.855,352.057,174.855z"/>
</g>
<g transform="matrix(0.9427 -0.3335 0.3335 0.9427 -139.04 72.71)">
	
		<ellipse transform="matrix(2.523680e-006 1 -1 2.523680e-006 583.5209 299.0395)" style="fill:#947165;" cx="142.24" cy="441.281" rx="63.617" ry="59.638"/>
	
		<ellipse transform="matrix(2.523680e-006 1 -1 2.523680e-006 583.5209 299.0395)" style="opacity:0.12;enable-background:new    ;" cx="142.24" cy="441.281" rx="63.617" ry="59.638"/>
</g>
<g transform="matrix(-0.9427 -0.3335 0.3335 -0.9427 571.25 980.66)">
	
		<ellipse transform="matrix(2.546683e-006 1 -1 2.546683e-006 811.1315 71.4902)" style="fill:#947165;" cx="369.821" cy="441.312" rx="63.617" ry="59.638"/>
	
		<ellipse transform="matrix(2.546683e-006 1 -1 2.546683e-006 811.1315 71.4902)" style="opacity:0.12;enable-background:new    ;" cx="369.821" cy="441.312" rx="63.617" ry="59.638"/>
</g>
<path d="M148.966,139.796c0,4.142,3.358,7.5,7.5,7.5s7.5-3.358,7.5-7.5c0-1.689,1.374-3.062,3.062-3.062
	c1.688,0,3.063,1.374,3.063,3.062c0,4.142,3.358,7.5,7.5,7.5c4.142,0,7.5-3.358,7.5-7.5c0-9.96-8.103-18.061-18.062-18.061
	C157.068,121.735,148.966,129.837,148.966,139.796z M470.7,195.655c-3.395-1.741-6.99-3.039-10.689-3.859
	c-19.722-4.373-39.942,5.142-49.169,23.138c-7.362,14.356-29.437,34.927-47.865,41.748c-1.981-2.052-4.024-4.054-6.134-6.001
	c16.263-14.821,28.626-33.158,35.536-53.096c1.355-3.914-0.718-8.186-4.631-9.542c-3.918-1.356-8.186,0.717-9.543,4.63
	c-7.94,22.913-24.099,43.51-45.499,57.997c-22.267,15.073-48.788,23.04-76.694,23.04c-70.584,0-128.009-51.847-128.009-115.574
	c0-63.728,57.425-115.575,128.009-115.575s128.009,51.847,128.009,115.575c0,2.399-0.082,4.817-0.242,7.186
	c-0.281,4.133,2.842,7.71,6.974,7.991c4.145,0.279,7.711-2.842,7.991-6.975c0.185-2.706,0.277-5.465,0.277-8.203
	c0-11.673-1.696-22.989-4.858-33.765c22.492-10.764,37.161-33.622,37.161-58.978C431.325,29.335,401.99,0,365.932,0
	c-24.948,0-47.615,14.305-58.558,36.276c-15.949-5.623-33.266-8.716-51.361-8.716s-35.412,3.092-51.361,8.715
	C193.71,14.305,171.044,0,146.095,0c-3.621,0-7.254,0.299-10.797,0.888c-4.086,0.68-6.848,4.543-6.168,8.629
	c0.68,4.086,4.543,6.847,8.629,6.168c2.733-0.455,5.538-0.685,8.336-0.685c18.856,0,36.014,10.608,44.623,26.986
	c-4.541,2.137-8.937,4.495-13.179,7.048c-5.956-11.477-17.916-19.077-31.443-19.077c-19.54,0-35.437,15.897-35.437,35.437
	c0,13.532,7.618,25.505,19.11,31.458c-2.517,4.305-4.783,8.749-6.769,13.322c-16.572-8.547-27.298-25.748-27.298-44.78
	c0-16.06,7.763-31.301,20.766-40.768c3.349-2.438,4.087-7.129,1.649-10.477s-7.129-4.087-10.478-1.649
	c-16.868,12.28-26.938,32.055-26.938,52.894c0,25.356,14.667,48.213,37.16,58.978c-3.162,10.775-4.858,22.092-4.858,33.765
	c0,36.122,16.15,68.861,42.2,92.524c-2.117,1.954-4.168,3.963-6.156,6.022c-18.428-6.822-40.503-27.392-47.865-41.747
	c-9.227-17.995-29.444-27.509-49.169-23.138c-3.698,0.82-7.295,2.118-10.688,3.859c-10.57,5.42-18.395,14.63-22.037,25.936
	c-3.642,11.306-2.662,23.353,2.757,33.922c16.615,32.406,51.951,64.918,87.385,80.892c-1.153,7.451-1.757,15.034-1.757,22.703
	c0,6.76,0.317,13.332,0.926,19.624c-20.262,11.324-33.268,33.053-33.946,58.003c-0.113,4.141,3.153,7.588,7.293,7.701
	c4.108,0.111,7.588-3.153,7.701-7.293c0.571-20.991,12.125-39.015,29.809-47.111c0.193-0.078,0.381-0.164,0.564-0.258
	c1.142-0.506,2.308-0.973,3.499-1.394c13.042-4.615,27.257-3.517,40.021,3.09c12.927,6.692,22.817,18.205,27.847,32.422
	c5.03,14.216,4.581,29.388-1.263,42.72c-0.811,1.849-1.721,3.623-2.707,5.334c-0.068,0.113-0.14,0.224-0.202,0.341
	c-6.039,10.298-15.176,17.972-26.264,21.895c-25.501,9.019-54.599-4.77-66.243-31.397c-1.66-3.796-6.083-5.526-9.876-3.867
	c-3.795,1.66-5.526,6.082-3.867,9.876c7.125,16.292,19.671,29.338,35.329,36.734c9.084,4.291,18.735,6.454,28.351,6.454
	c7.209,0,14.397-1.215,21.309-3.661c12.746-4.51,23.507-12.768,31.235-23.791c17.138,4.478,36.886,6.753,58.823,6.753
	c21.937,0,41.685-2.275,58.823-6.753c7.728,11.023,18.487,19.281,31.234,23.79c6.953,2.46,14.144,3.681,21.348,3.681
	c10.403,0,20.829-2.548,30.571-7.591c16.324-8.45,28.788-22.918,35.093-40.739c6.306-17.821,5.715-36.908-1.665-53.744
	c-5.935-13.539-15.689-24.321-27.993-31.192c0.609-6.295,0.926-12.867,0.926-19.627c0-7.67-0.603-15.253-1.757-22.704
	c35.436-15.973,70.77-48.486,87.385-80.892C501.165,233.693,492.517,206.842,470.7,195.655z M373.837,84.223
	c-7.537-9.986-16.549-18.973-26.757-26.69c3.106-7.486,10.447-12.578,18.851-12.578c11.27,0,20.437,9.168,20.437,20.437
	C386.369,73.775,381.296,81.106,373.837,84.223z M365.932,14.999c27.787,0,50.394,22.606,50.394,50.393
	c0,19.031-10.726,36.233-27.299,44.78c-1.985-4.574-4.252-9.018-6.769-13.322c11.493-5.953,19.11-17.925,19.11-31.458
	c0-19.54-15.896-35.437-35.437-35.437c-13.526,0-25.487,7.602-31.444,19.077c-4.243-2.553-8.639-4.911-13.179-7.047
	C329.918,25.607,347.076,14.999,365.932,14.999z M125.658,65.392c0-11.27,9.168-20.437,20.437-20.437
	c8.405,0,15.746,5.093,18.851,12.578c-10.208,7.717-19.22,16.705-26.757,26.69C130.73,81.106,125.658,73.775,125.658,65.392z
	 M112.578,321.333c-31.526-15.071-62.449-43.931-77.183-72.665c-3.591-7.004-4.241-14.987-1.827-22.479
	c2.413-7.492,7.6-13.596,14.603-17.188c2.255-1.157,4.641-2.019,7.09-2.561c13.064-2.895,26.461,3.411,32.576,15.338
	c8.264,16.115,30.081,37.148,50.874,46.805C126.502,284.263,117.635,302.188,112.578,321.333z M307.457,470.911
	c-15.064,3.563-32.317,5.372-51.444,5.372c-19.127,0-36.379-1.809-51.444-5.372c6.687-16.41,7.053-34.805,0.961-52.025
	c-6.306-17.822-18.768-32.291-35.093-40.739c-14.995-7.762-31.602-9.592-47.269-5.34c-0.314-4.443-0.492-9.012-0.492-13.701
	c0-8.78,0.863-17.439,2.535-25.878c0.004-0.023,0.01-0.045,0.014-0.068c4.639-23.344,15.5-44.983,31.539-62.76
	c0.025-0.027,0.049-0.055,0.074-0.082c3.179-3.518,6.562-6.884,10.14-10.081c24.447,17.809,55.401,28.472,89.035,28.472
	c30.916,0,60.344-8.859,85.102-25.619c1.348-0.912,2.671-1.854,3.982-2.81c3.566,3.19,6.938,6.547,10.107,10.056
	c0.017,0.018,0.033,0.037,0.05,0.055c16.043,17.779,26.907,39.42,31.547,62.769c0.004,0.023,0.01,0.045,0.014,0.068
	c1.672,8.439,2.535,17.098,2.535,25.878c0,4.689-0.178,9.258-0.492,13.7c-15.669-4.253-32.275-2.422-47.269,5.34
	c-16.324,8.45-28.788,22.918-35.093,40.739C300.404,436.106,300.769,454.501,307.457,470.911z M417.678,415.947
	c5.844,13.332,6.292,28.504,1.263,42.72c-5.029,14.216-14.919,25.731-27.847,32.422c-12.766,6.607-26.978,7.705-40.021,3.09
	c-11.087-3.922-20.224-11.596-26.263-21.895c-0.063-0.118-0.135-0.229-0.203-0.342c-0.986-1.711-1.896-3.485-2.706-5.333
	c-5.844-13.332-6.292-28.504-1.263-42.72c5.029-14.216,14.919-25.73,27.847-32.422c7.573-3.919,15.652-5.9,23.697-5.9
	c5.518,0,11.018,0.932,16.323,2.809c1.257,0.445,2.481,0.952,3.687,1.492c0.077,0.037,0.156,0.07,0.234,0.104
	C403.617,395.05,412.5,404.133,417.678,415.947z M476.631,248.668c-14.732,28.733-45.657,57.594-77.183,72.665
	c-5.057-19.145-13.923-37.069-26.133-52.751c20.794-9.657,42.61-30.69,50.874-46.805c6.115-11.927,19.509-18.233,32.576-15.337
	c2.449,0.543,4.835,1.405,7.091,2.562C478.314,216.415,484.045,234.209,476.631,248.668z M248.422,164.087
	c0,2.781-2.262,5.043-5.043,5.043c-2.78,0-5.042-2.262-5.042-5.043c0-4.142-3.358-7.5-7.5-7.5s-7.5,3.358-7.5,7.5
	c0,11.052,8.991,20.042,20.041,20.042c4.743,0,9.107-1.656,12.542-4.42c3.436,2.765,7.799,4.42,12.542,4.42
	c11.052,0,20.042-8.991,20.042-20.042c0-4.142-3.358-7.5-7.5-7.5c-4.143,0-7.5,3.358-7.5,7.5c0,2.781-2.263,5.043-5.043,5.043
	c-2.78,0-5.042-2.262-5.042-5.043c0-2.348-1.08-4.442-2.77-5.817c5.163-0.953,9.875-3.49,13.58-7.39l7.595-7.991
	c4.974-5.234,6.295-12.606,3.447-19.241c-2.849-6.635-9.103-10.757-16.322-10.757h-25.876c-7.221,0-13.474,4.122-16.322,10.757
	s-1.527,14.007,3.447,19.241l7.594,7.991c3.671,3.862,8.328,6.39,13.432,7.364C249.518,159.618,248.422,161.723,248.422,164.087z
	 M248.667,140.547l-7.594-7.991c-1.091-1.148-0.804-2.368-0.536-2.992c0.268-0.625,0.955-1.673,2.539-1.673h25.876
	c1.584,0,2.271,1.048,2.539,1.673c0.268,0.625,0.555,1.844-0.536,2.992l-7.595,7.991c-1.933,2.033-4.541,3.153-7.347,3.153
	C253.208,143.7,250.599,142.58,248.667,140.547z M326.752,139.796c0,4.142,3.357,7.5,7.5,7.5c4.143,0,7.5-3.358,7.5-7.5
	c0-1.689,1.374-3.062,3.063-3.062c1.688,0,3.063,1.374,3.063,3.062c0,4.142,3.357,7.5,7.5,7.5c4.143,0,7.5-3.358,7.5-7.5
	c0-9.96-8.103-18.061-18.062-18.061C334.855,121.735,326.752,129.837,326.752,139.796z"/>
<g>
</g>
<g>
</g>
<g>
</g>
<g>
</g>
<g>
</g>
<g>
</g>
<g>
</g>
<g>
</g>
<g>
</g>
<g>
</g>
<g>
</g>
<g>
</g>
<g>
</g>
<g>
</g>
<g>
</g>
</svg>
