<svg id="Capa_1" enable-background="new 0 0 512 512" height="512" viewBox="0 0 512 512" width="512" xmlns="http://www.w3.org/2000/svg"><g><path d="m223.883 146.531c-15.165 5.883-19.374 25.531-7.801 37.113 21.169 21.181 10.445 10.451 59.308 59.346 15.853 15.853 41.546 15.904 57.45 0 35.895-35.919 22.625-22.641 59.308-59.346 14.206-14.215 4.173-38.644-16.012-38.644h-25.036c0-7.81-.003-88.185-.003-96 0-17.645-14.355-32-32-32h-29.972c-17.64 0-31.99 14.351-31.99 31.99 0 68.282-.005-43.89-.005 96.01-26.429 0-27.986-.508-33.247 1.531z"/><path d="m497 401.667c-415.684 0-397.149.077-397.175-.139-4.556-36.483-4.373-34.149-4.076-34.193 199.47-1.037-277.492.065 368.071.065 26.9 0 47.18-20.38 47.18-47.4v-203.25c0-19.7-16.03-35.76-35.72-35.79l-94.18-.16v34.43c44.176 4.141 63.773 58.096 32.27 89.62l-59.31 59.34c-27.597 27.617-72.286 27.624-99.89 0l-59.31-59.34c-31.488-31.509-11.918-85.478 32.27-89.62v-34.7l-103.205-.178-9.985-54.992c-2.668-14.694-15.444-25.36-30.379-25.36h-68.561c-8.284 0-15 6.716-15 15s6.716 15 15 15h68.561c3.29 0 34.7 206.398 50.441 307.135l-38.388.2c-18.027.069-32.06 15.893-29.81 33.899l4.252 34.016c1.883 15.06 14.748 26.417 29.925 26.417h26.619c-18.8 36.504 7.827 80.333 49.067 80.333 41.221 0 67.876-43.813 49.067-80.333h142.866c-18.801 36.504 7.827 80.333 49.067 80.333 41.22 0 67.875-43.811 49.066-80.333h31.267c8.284 0 15-6.716 15-15s-6.716-15-15-15z"/></g></svg>